<svg width="18" height="18" viewBox="0 0 18 18" fill="none" xmlns="http://www.w3.org/2000/svg">
  <g clip-path="url(#clip0_1_1899)">
    <path
      d="M17.7402 8.36001L16.7402 7.36001C16.5424 7.1602 16.394 6.91675 16.3071 6.64932C16.2203 6.38188 16.1975 6.09788 16.2402 5.81997L16.4302 4.44985C16.4538 4.21789 16.3882 3.98558 16.2471 3.79995C16.106 3.61432 15.8997 3.4892 15.6699 3.44985L14.29 3.20986C14.0059 3.15789 13.7377 3.04042 13.5068 2.86685C13.276 2.69327 13.0888 2.46837 12.96 2.20986L12.2998 0.989892C12.175 0.786033 11.9814 0.633583 11.7539 0.560205C11.5264 0.486827 11.2804 0.497472 11.0601 0.58999L9.7998 1.19985C9.544 1.32304 9.2639 1.38711 8.97998 1.38711C8.69606 1.38711 8.41596 1.32304 8.16016 1.19985L6.8999 0.58999C6.67952 0.497472 6.43353 0.486827 6.20605 0.560205C5.97858 0.633583 5.78493 0.786033 5.66016 0.989892L5 2.20986C4.87117 2.46837 4.68398 2.69327 4.45312 2.86685C4.22227 3.04042 3.95403 3.15789 3.66992 3.20986L2.29004 3.44985C2.06022 3.4892 1.85397 3.61432 1.71289 3.79995C1.57181 3.98558 1.50617 4.21789 1.52979 4.44985L1.72021 5.81997C1.76294 6.09788 1.73966 6.38188 1.65283 6.64932C1.566 6.91675 1.41805 7.1602 1.22021 7.36001L0.220215 8.36001C0.0516677 8.53038 -0.0429688 8.76025 -0.0429688 8.9999C-0.0429688 9.23955 0.0516677 9.46943 0.220215 9.63979L1.22021 10.6398C1.41805 10.8396 1.566 11.0831 1.65283 11.3505C1.73966 11.6179 1.76294 11.9019 1.72021 12.1798L1.52979 13.55C1.50617 13.7819 1.57181 14.0142 1.71289 14.1999C1.85397 14.3855 2.06022 14.5106 2.29004 14.55L3.66992 14.7899C3.95403 14.8419 4.22227 14.9594 4.45312 15.133C4.68398 15.3065 4.87117 15.5314 5 15.7899L5.66016 17.0099C5.78493 17.2138 5.97858 17.3662 6.20605 17.4396C6.43353 17.513 6.67952 17.5023 6.8999 17.4098L8.16016 16.8C8.41596 16.6768 8.69606 16.6127 8.97998 16.6127C9.2639 16.6127 9.544 16.6768 9.7998 16.8L11.0601 17.4098C11.2804 17.5023 11.5264 17.513 11.7539 17.4396C11.9814 17.3662 12.175 17.2138 12.2998 17.0099L12.96 15.7899C13.0888 15.5314 13.276 15.3065 13.5068 15.133C13.7377 14.9594 14.0059 14.8419 14.29 14.7899L15.6699 14.55C15.8997 14.5106 16.106 14.3855 16.2471 14.1999C16.3882 14.0142 16.4538 13.7819 16.4302 13.55L16.2402 12.1798C16.1975 11.9019 16.2203 11.6179 16.3071 11.3505C16.394 11.0831 16.5424 10.8396 16.7402 10.6398L17.7402 9.63979C17.9088 9.46943 18.0029 9.23955 18.0029 8.9999C18.0029 8.76025 17.9088 8.53038 17.7402 8.36001ZM8.0498 12.56L4.68994 9.19985L5.75 8.13979L8.0498 10.4398L12.4702 6.01992L13.5298 7.07998L8.0498 12.56Z"
      fill="#0000FF"
    />
  </g>
  <defs>
    <clipPath id="clip0_1_1899">
      <rect width="18" height="17" fill="white" transform="translate(0 0.5)" />
    </clipPath>
  </defs>
</svg>
