<?xml version="1.0" standalone="no"?>
<!DOCTYPE svg PUBLIC "-//W3C//DTD SVG 20010904//EN"
 "http://www.w3.org/TR/2001/REC-SVG-20010904/DTD/svg10.dtd">
<svg version="1.0" xmlns="http://www.w3.org/2000/svg"
 width="45.000000pt" height="45.000000pt" viewBox="0 0 45.000000 45.000000"
 preserveAspectRatio="xMidYMid meet">

<g transform="translate(0.000000,45.000000) scale(0.100000,-0.100000)"
fill="#000000" stroke="none">
<path d="M194 399 c-13 -14 -26 -19 -45 -15 -28 5 -49 -9 -49 -33 0 -9 -14
-28 -32 -42 -30 -25 -31 -28 -19 -56 10 -24 9 -35 -1 -57 -11 -26 -10 -30 20
-55 18 -14 32 -33 32 -41 0 -25 21 -39 49 -34 19 4 32 -1 45 -15 24 -26 38
-26 62 0 13 14 26 19 45 15 28 -5 49 9 49 34 0 8 14 27 32 41 30 25 31 28 19
56 -10 24 -9 35 1 57 11 26 10 30 -20 55 -18 14 -32 33 -32 42 0 24 -21 38
-49 33 -19 -4 -32 1 -45 15 -11 12 -24 21 -31 21 -7 0 -20 -9 -31 -21z m122
-120 c3 -6 -19 -37 -52 -70 l-58 -59 -33 32 c-22 21 -30 35 -23 42 6 6 17 3
30 -9 21 -19 21 -18 68 28 49 50 57 54 68 36z"/>
</g>
</svg>
