<svg width="16" height="16" viewBox="0 0 16 16" fill="none" xmlns="http://www.w3.org/2000/svg">
<path d="M16 12V1C16 0.734784 15.8946 0.480505 15.707 0.292969C15.5195 0.105432 15.2652 0 15 0H4V2H14V12H16Z" fill="black"/>
<path d="M12 15V5C12 4.73478 11.8946 4.48051 11.707 4.29297C11.5195 4.10543 11.2652 4 11 4H1C0.734784 4 0.480505 4.10543 0.292969 4.29297C0.105432 4.48051 0 4.73478 0 5V15C0 15.2652 0.105432 15.5195 0.292969 15.707C0.480505 15.8946 0.734784 16 1 16H11C11.2652 16 11.5195 15.8946 11.707 15.707C11.8946 15.5195 12 15.2652 12 15ZM2 14V6H10V14H2Z" fill="black"/>
</svg>
