<svg id="Слой_1" data-name="Слой 1" xmlns="http://www.w3.org/2000/svg" xmlns:xlink="http://www.w3.org/1999/xlink" viewBox="0 0 853.77 361.74"><defs><style>.cls-1{fill-rule:evenodd;fill:url(#Безымянный_градиент_10);}</style><linearGradient id="Безымянный_градиент_10" x1="138.83" y1="311.11" x2="138.83" y2="52.63" gradientUnits="userSpaceOnUse"><stop offset="0" stop-color="#ad38ec"/><stop offset="0.52" stop-color="#ff1f9b"/><stop offset="1" stop-color="#fa8146"/></linearGradient></defs><path class="cls-1" d="M147.51,85V121a6.57,6.57,0,0,0,11.21,4.64l61.75-61.75a6.57,6.57,0,0,0-4.64-11.21H179.91A32.46,32.46,0,0,0,147.51,85M55.24,176.67v35.92a6.57,6.57,0,0,0,11.21,4.64l61.75-61.75a6.57,6.57,0,0,0-4.65-11.21H87.63A32.46,32.46,0,0,0,55.24,176.67Zm0,91.93v35.92a6.56,6.56,0,0,0,11.21,4.64l61.75-61.74a6.57,6.57,0,0,0-4.65-11.21H87.63A32.45,32.45,0,0,0,55.24,268.6Zm92.27-91.93v35.92a6.57,6.57,0,0,0,11.21,4.64l61.75-61.75a6.57,6.57,0,0,0-4.64-11.21H179.91A32.47,32.47,0,0,0,147.51,176.67ZM55.24,85V121a6.57,6.57,0,0,0,11.21,4.64L128.2,63.84a6.57,6.57,0,0,0-4.65-11.21H87.63A32.45,32.45,0,0,0,55.24,85Z"/><path d="M288.13,263.69a12.64,12.64,0,0,0,2.27-.19,11.09,11.09,0,0,0,2-.54,9.41,9.41,0,0,0,1.8-.88,8.53,8.53,0,0,0,1.45-1.15,9.18,9.18,0,0,0,1.18-1.45h0a9.73,9.73,0,0,0,.88-1.74,10.11,10.11,0,0,0,.56-2,11.69,11.69,0,0,0,.17-2.18V174.05l37-.08h.06a8.14,8.14,0,0,0,2.19-.14h0c6-1.29,7.36-14.46,0-16a8.33,8.33,0,0,0-2.22-.14h-.06l-37-.08V144.73c0-2,.14-9.81.41-11.65a30.16,30.16,0,0,1,1.27-5.37,23.88,23.88,0,0,1,2.11-4.55,20.75,20.75,0,0,1,3-3.93,20.38,20.38,0,0,1,3.89-3.08,23.59,23.59,0,0,1,4.53-2.15,28.52,28.52,0,0,1,5.3-1.3,38.53,38.53,0,0,1,5.68-.41,62,62,0,0,1,10.55,1.31s.06,0,.08,0l1.63.3.61.08a8.61,8.61,0,0,0,1.58-.12,7.56,7.56,0,0,0,1.48-.42,7.38,7.38,0,0,0,1.32-.65,7.16,7.16,0,0,0,1.12-.87,6.71,6.71,0,0,0,.88-1,6.59,6.59,0,0,0,.66-1.24,7.44,7.44,0,0,0,.4-1.39,7.59,7.59,0,0,0,.14-1.48,6.89,6.89,0,0,0-.1-1.22,5.92,5.92,0,0,0-.31-1.07v0a5.66,5.66,0,0,0-.51-1,5.94,5.94,0,0,0-.73-.91,8.72,8.72,0,0,0-1-.91,12.23,12.23,0,0,0-1.41-.89l0,0a18.18,18.18,0,0,0-1.7-.82q-.94-.4-2.07-.78l-.07,0c-.54-.16-1.19-.34-2-.53s-1.5-.36-2.26-.52-1.41-.28-2.24-.42h0c-1-.16-1.78-.28-2.44-.37s-1.63-.2-2.55-.29c-.7-.06-1.55-.13-2.52-.19l-2.77-.14h-2.64a56.74,56.74,0,0,0-9.06.67c-.85.14-1.69.3-2.51.48a42.63,42.63,0,0,0-5.42,1.54,35.51,35.51,0,0,0-6.87,3.33h0a31.33,31.33,0,0,0-5.62,4.51h0a32.16,32.16,0,0,0-4.48,5.69v0a36.64,36.64,0,0,0-3.3,7v0a45.56,45.56,0,0,0-2,8c-.44,2.78-.67,11.76-.67,15.1v14.55l-18.39.07a7.89,7.89,0,0,0-2.2.06c-7.48,1.33-7.08,14.95,0,16.21a7.89,7.89,0,0,0,2.2.06l18.39.09v79.52a12.33,12.33,0,0,0,.18,2.12,12.16,12.16,0,0,0,.56,2h0a9.92,9.92,0,0,0,.88,1.76,9.4,9.4,0,0,0,1.21,1.45,9.29,9.29,0,0,0,1.5,1.2,9.42,9.42,0,0,0,1.77.87,11.78,11.78,0,0,0,2,.58,12,12,0,0,0,2.05.16h.15M378,173.94V253.1a12.43,12.43,0,0,0,.18,2.25,11.38,11.38,0,0,0,.59,2.07,10.26,10.26,0,0,0,.92,1.81v0a9.75,9.75,0,0,0,1.24,1.5h0l0,0h0a9.65,9.65,0,0,0,1.53,1.24,9.21,9.21,0,0,0,1.8.91,10,10,0,0,0,2.05.58,9.36,9.36,0,0,0,1,.13,14.49,14.49,0,0,0,3.48-.13,10.32,10.32,0,0,0,2.06-.58,9.93,9.93,0,0,0,1.81-.92,9.38,9.38,0,0,0,1.52-1.26h0a8.71,8.71,0,0,0,1.24-1.5v0a11,11,0,0,0,.93-1.81,12,12,0,0,0,.58-2.07,12.5,12.5,0,0,0,.18-2.25V108a11.78,11.78,0,0,0-.18-2.16,10.57,10.57,0,0,0-.57-1.94,9.55,9.55,0,0,0-.91-1.74,9.29,9.29,0,0,0-1.22-1.45,9.79,9.79,0,0,0-1.51-1.17,10.53,10.53,0,0,0-1.84-.92,11.91,11.91,0,0,0-2.07-.54,13.62,13.62,0,0,0-2.27-.19,13.81,13.81,0,0,0-2.27.19,12.15,12.15,0,0,0-2.07.54h0a9.9,9.9,0,0,0-1.81.91,8.92,8.92,0,0,0-1.51,1.17,9.27,9.27,0,0,0-1.23,1.45,9.55,9.55,0,0,0-.91,1.74,10.55,10.55,0,0,0-.56,1.94A11.65,11.65,0,0,0,378,108v65.93ZM579.12,157.6l21.55,60,13,36.08a23.63,23.63,0,0,0,1.07,2.51,15.38,15.38,0,0,0,1.16,2A13.29,13.29,0,0,0,617.2,260a11.42,11.42,0,0,0,1.5,1.32,10.46,10.46,0,0,0,1.64,1,11.88,11.88,0,0,0,1.92.74v0a15.48,15.48,0,0,0,2.17.46c9.39,1.33,15.48-2.44,18.35-11.14L667,179l22.77,69c2.45,7.44,6.41,17.44,19.5,15.58a14.38,14.38,0,0,0,2.17-.47v0a11.88,11.88,0,0,0,1.92-.74,11.48,11.48,0,0,0,1.64-1,12,12,0,0,0,1.5-1.35h0a13,13,0,0,0,1.34-1.73,18,18,0,0,0,1.16-2,27.16,27.16,0,0,0,1.07-2.52l34.55-95.8h0l.61-1.84.28-1.34c.07-.48.11-.93.16-1.41v-.66a11,11,0,0,0-.17-2,9.57,9.57,0,0,0-.52-1.83h0a8.78,8.78,0,0,0-.84-1.62,7.42,7.42,0,0,0-1.1-1.32,8.24,8.24,0,0,0-1.41-1.09,9.12,9.12,0,0,0-1.69-.82,11,11,0,0,0-1.91-.52,13.27,13.27,0,0,0-2.17-.17,10.24,10.24,0,0,0-1.59.11h0a9.54,9.54,0,0,0-1.51.38h0a9.26,9.26,0,0,0-1.39.6,8.87,8.87,0,0,0-1.28.85,10.12,10.12,0,0,0-1.21,1.08,11.77,11.77,0,0,0-1.07,1.36,12.86,12.86,0,0,0-.91,1.59,14.72,14.72,0,0,0-.77,1.78h0l-8.91,25.88-21.43,62.2L677.34,151c-.23-.69-.47-1.33-.73-1.91a13.7,13.7,0,0,0-.88-1.6,9.34,9.34,0,0,0-1-1.36,8.14,8.14,0,0,0-2.23-1.76,9,9,0,0,0-1.41-.57,9.54,9.54,0,0,0-1.6-.37,13.45,13.45,0,0,0-1.91-.12,12.58,12.58,0,0,0-1.83.12,10.33,10.33,0,0,0-1.59.35,9,9,0,0,0-1.41.57,8.07,8.07,0,0,0-1.21.77,7.71,7.71,0,0,0-1.1,1,10.36,10.36,0,0,0-1,1.34,11.59,11.59,0,0,0-.84,1.54,18.06,18.06,0,0,0-.77,2l-8.32,26-20.1,62.92L599.09,151a17.47,17.47,0,0,0-.76-1.92,13.47,13.47,0,0,0-.87-1.6,11.48,11.48,0,0,0-1-1.36,7.48,7.48,0,0,0-1-1v0a8.09,8.09,0,0,0-1.22-.77,8.57,8.57,0,0,0-1.5-.58,11.63,11.63,0,0,0-1.73-.38,15.25,15.25,0,0,0-2.08-.12,13.6,13.6,0,0,0-2.29.19,11.78,11.78,0,0,0-2,.54,10.64,10.64,0,0,0-1.82.87,9.93,9.93,0,0,0-1.53,1.18,9.38,9.38,0,0,0-1.22,1.44,9.28,9.28,0,0,0-.92,1.69l0,.12a10.79,10.79,0,0,0-.51,1.79,11,11,0,0,0-.19,2v.5l.13,1.16.27,1.22s.13.54.15.62Zm-24.35,27.92a54.37,54.37,0,0,0-1.94-5.49,56.27,56.27,0,0,0-2.43-5.16c-.83-1.55-1.83-3.17-3-4.87h0c-1-1.43-2.15-3-3.52-4.64s-2.66-3-4-4.41-3-2.85-4.41-4-3-2.36-4.74-3.52A55.5,55.5,0,0,0,514.88,146a58.45,58.45,0,0,0-5.74-1.37q-3.19-.58-6-.84c-2.05-.17-4.16-.26-6.29-.26s-4.24.09-6.3.27a60.34,60.34,0,0,0-6,.83q-2.91.54-5.75,1.37a55.92,55.92,0,0,0-15.86,7.38c-1.73,1.16-3.31,2.34-4.74,3.52s-3.06,2.65-4.45,4l0,0c-1.36,1.36-2.7,2.82-4,4.39s-2.56,3.2-3.53,4.63l0,0a54,54,0,0,0-3,4.86A56.49,56.49,0,0,0,440.8,180a54.37,54.37,0,0,0-1.94,5.49,56.65,56.65,0,0,0-1.38,5.71q-.51,2.72-.8,5.94c-.2,2.27-.31,4.32-.31,6.14,0,2.11.09,4.2.27,6.24q.24,2.8.83,6a55.71,55.71,0,0,0,1.37,5.78c.59,2,1.22,3.87,1.9,5.55a58.26,58.26,0,0,0,2.44,5.31,55.23,55.23,0,0,0,3,5,58.17,58.17,0,0,0,3.51,4.72c1.29,1.56,2.64,3.05,4,4.45s3,2.82,4.37,4,2.93,2.25,4.74,3.45h0a56.29,56.29,0,0,0,5,2.95,58.09,58.09,0,0,0,5.32,2.42v0q2.88,1.14,5.53,1.9a57.59,57.59,0,0,0,5.8,1.31c2.15.39,4.17.66,6,.82q3.11.26,6.29.26c2.11,0,4.21-.09,6.28-.26,1.87-.16,3.89-.43,6-.82a54.67,54.67,0,0,0,5.76-1.31c1.35-.38,2.64-.79,3.88-1.23h.07l1.66-.66a51.91,51.91,0,0,0,5.28-2.41,55.8,55.8,0,0,0,5-2.95c1.82-1.2,3.41-2.36,4.76-3.46s2.88-2.49,4.37-4,2.75-2.89,4-4.45a55.15,55.15,0,0,0,3.54-4.76,56.76,56.76,0,0,0,3-5,58.34,58.34,0,0,0,2.45-5.3c.67-1.68,1.3-3.54,1.9-5.55a58.54,58.54,0,0,0,1.36-5.79c.39-2.09.66-4.08.83-6s.27-4.12.27-6.24c0-1.82-.11-3.87-.31-6.14s-.46-4.13-.8-5.94A56.65,56.65,0,0,0,554.77,185.52Zm-21,6.18c-.35-1.21-.77-2.41-1.24-3.6s-1-2.34-1.55-3.39-1.17-2.08-1.9-3.19h0c-.62-.94-1.37-2-2.25-3s-1.69-2-2.57-2.9-1.9-1.87-2.81-2.65-1.92-1.54-3-2.31a37.1,37.1,0,0,0-3.19-2,35.2,35.2,0,0,0-3.35-1.61,36.78,36.78,0,0,0-3.57-1.26q-1.81-.54-3.66-.9c-1.36-.25-2.65-.44-3.85-.55s-2.65-.17-4-.17-2.71.06-4,.18a37.81,37.81,0,0,0-3.85.54q-1.84.36-3.66.9a34.94,34.94,0,0,0-6.93,2.87c-1.07.59-2.13,1.25-3.19,2s-2.11,1.54-3,2.31-1.95,1.74-2.84,2.65h0q-1.31,1.35-2.55,2.88a37.22,37.22,0,0,0-2.25,3h0a36.39,36.39,0,0,0-1.89,3.2,34.48,34.48,0,0,0-1.55,3.39,37.44,37.44,0,0,0-1.25,3.6c-.34,1.21-.64,2.46-.87,3.74s-.39,2.49-.52,3.9-.19,2.84-.19,4c0,1.39.06,2.75.17,4.09s.28,2.54.53,3.93.52,2.54.87,3.79.78,2.54,1.21,3.65,1,2.36,1.56,3.48,1.2,2.19,1.91,3.29,1.43,2.08,2.24,3.09a38.39,38.39,0,0,0,2.58,2.92,34.58,34.58,0,0,0,2.79,2.61,35.88,35.88,0,0,0,3,2.27h0a35.26,35.26,0,0,0,3.2,1.93,34.79,34.79,0,0,0,3.39,1.58h0a36.69,36.69,0,0,0,3.52,1.25,37.13,37.13,0,0,0,3.7.86,38.11,38.11,0,0,0,3.85.54c1.33.11,2.66.17,4,.17s2.68-.06,4-.17a38.11,38.11,0,0,0,3.85-.54,33.9,33.9,0,0,0,3.67-.86c.86-.25,1.68-.52,2.47-.81h.05l1.06-.43a31.76,31.76,0,0,0,3.36-1.58,36,36,0,0,0,3.18-1.93c1.16-.79,2.17-1.55,3-2.28s1.83-1.63,2.78-2.61a38.14,38.14,0,0,0,2.58-2.92,35.2,35.2,0,0,0,2.25-3.12c.71-1.09,1.34-2.18,1.9-3.26s1.09-2.28,1.56-3.48.83-2.33,1.21-3.65.64-2.52.87-3.79.42-2.68.53-3.93.17-2.7.17-4.09c0-1.19-.07-2.54-.19-4s-.3-2.71-.52-3.9S534.12,192.91,533.78,191.7ZM389.78,277c-.42,0-.84,0-1.25,0a25.72,25.72,0,0,1-4.64-.44,24.89,24.89,0,0,1-4.46-1.26,23.09,23.09,0,0,1-4.26-2.18,22.13,22.13,0,0,1-3.69-3s0,0,0,0a22,22,0,0,1-3-3.7h0a23.79,23.79,0,0,1-2.17-4.27,24.76,24.76,0,0,1-1.27-4.48,25.82,25.82,0,0,1-.44-4.65V187.19l-25.06,0-.13,0v0h-.09v66.43a25.26,25.26,0,0,1-.44,4.59,23.55,23.55,0,0,1-1.24,4.39v0a23.1,23.1,0,0,1-2.17,4.18h0a22.52,22.52,0,0,1-3,3.66,22,22,0,0,1-3.7,2.92,22.85,22.85,0,0,1-4.2,2.09,25,25,0,0,1-4.4,1.22,26.48,26.48,0,0,1-4.56.4H288a26.1,26.1,0,0,1-4.4-.43,22.77,22.77,0,0,1-8.58-3.33,23.19,23.19,0,0,1-3.69-2.93,23.56,23.56,0,0,1-5.17-7.81h0a24.49,24.49,0,0,1-1.73-9V187.37h-6a20.17,20.17,0,0,1-3.6-.33,18.62,18.62,0,0,1-10.36-5.54h0a19.77,19.77,0,0,1-3.48-5,22.06,22.06,0,0,1-1-2.41,23.11,23.11,0,0,1-.71-2.5c-.21-.92-.35-3.18-.44-4a20.56,20.56,0,0,1,0-5.12,23.87,23.87,0,0,1,.44-2.54,23.54,23.54,0,0,1,.72-2.54,20.74,20.74,0,0,1,1-2.4,20.33,20.33,0,0,1,3.48-4.95,18.76,18.76,0,0,1,10.37-5.53,21.53,21.53,0,0,1,2.93-.32h0c.5,0,1,0,1.52,0h5.12V143a170,170,0,0,1,.87-17.14,59.8,59.8,0,0,1,2.58-10.41,50.57,50.57,0,0,1,4.51-9.54,45.84,45.84,0,0,1,6.36-8.12h0a45.09,45.09,0,0,1,8-6.4h0a49.21,49.21,0,0,1,9.48-4.58,57.35,57.35,0,0,1,10.34-2.64,69.42,69.42,0,0,1,11.15-.89H340.3a136.43,136.43,0,0,1,17.1.79h0c1.18.16,2.15.3,2.92.43s1.82.33,2.76.52h0c1,.2,1.89.41,2.75.63h0c.79.2,1.68.44,2.63.72l.29.1c1.09.35,2.15.75,3.17,1.18.81.35,1.6.73,2.38,1.14,3.61-3.15,7-5.51,14.15-5.51h28a25.72,25.72,0,0,1,4,.39A25.12,25.12,0,0,1,425,84.92,24.31,24.31,0,0,1,429.23,87,22.57,22.57,0,0,1,436,93.54a22.38,22.38,0,0,1,2.22,4.19,23.75,23.75,0,0,1,1.3,4.45,25.08,25.08,0,0,1,.45,4.61v45.36q.87-.89,1.77-1.74c1.8-1.73,3.74-3.41,5.8-5s4.14-3.11,6.16-4.42a77.11,77.11,0,0,1,20.6-9.22h0q3.78-1.06,7.44-1.72c2.5-.44,5.06-.78,7.67-1s5.24-.34,7.89-.34h29v0c2.12,0,4.22.14,6.31.31,2.6.22,5.16.55,7.65,1s4.87,1,7.38,1.67,4.78,1.45,7.13,2.35,4.6,1.91,6.75,3a73,73,0,0,1,6.41,3.67l.33.22c.2-.32.4-.64.61-.94a22.13,22.13,0,0,1,6.78-6.43,23.6,23.6,0,0,1,4.22-2.08,25.72,25.72,0,0,1,4.39-1.17,26.5,26.5,0,0,1,4.54-.39H616.3a29.15,29.15,0,0,1,3.89.27h0a25.13,25.13,0,0,1,3.72.8,22.16,22.16,0,0,1,3.75,1.52A21.24,21.24,0,0,1,631,134.6h0a22,22,0,0,1,2.83,2.65,24.8,24.8,0,0,1,2.29,3.09,26.73,26.73,0,0,1,1.71,3.11,33.51,33.51,0,0,1,1.34,3.29l3.1,9.09,2.84-8.89a30.81,30.81,0,0,1,1.34-3.5,26.12,26.12,0,0,1,1.73-3.22,24.34,24.34,0,0,1,2.36-3.06,22.39,22.39,0,0,1,2.82-2.63,21.15,21.15,0,0,1,3.26-2.08,22,22,0,0,1,3.6-1.46,24.09,24.09,0,0,1,3.63-.82,26.25,26.25,0,0,1,3.71-.27h25.6V130c.63-.05,1.25-.07,1.86-.07a25.74,25.74,0,0,1,3.79.28,22.92,22.92,0,0,1,3.7.83,20.51,20.51,0,0,1,3.65,1.52,20.31,20.31,0,0,1,3.28,2.14,20.82,20.82,0,0,1,2.77,2.65,22.81,22.81,0,0,1,2.26,3.06l0,0a28.1,28.1,0,0,1,1.66,3.12,31.41,31.41,0,0,1,1.3,3.38l2.84,8.81,3.11-9h0a30.27,30.27,0,0,1,1.4-3.41,27.14,27.14,0,0,1,1.86-3.16,25.31,25.31,0,0,1,2.38-2.93,23.26,23.26,0,0,1,2.77-2.54,21,21,0,0,1,3.17-2.05,22.79,22.79,0,0,1,7.08-2.39,23.21,23.21,0,0,1,3.73-.32h27.46a26.2,26.2,0,0,1,4.42.38,24.34,24.34,0,0,1,4.27,1.14,23.34,23.34,0,0,1,4.14,2,22.22,22.22,0,0,1,3.61,2.82,20.71,20.71,0,0,1,3,3.57,22,22,0,0,1,2.15,4.07h0a23.32,23.32,0,0,1,1.24,4.29,24.31,24.31,0,0,1,.43,4.46c0,.35,0,.86-.06,1.5-.08,1-.17,1.77-.32,2.76l-.24,1.3c-.38,1.51-.71,2.69-1.22,4.14l0,0L760.1,258.21a36.75,36.75,0,0,1-1.65,3.92,30.34,30.34,0,0,1-2.05,3.56,26.61,26.61,0,0,1-2.71,3.36v0a25,25,0,0,1-3.17,2.86,23.18,23.18,0,0,1-3.68,2.28,25,25,0,0,1-4.06,1.64v0a27.48,27.48,0,0,1-4.15.94,31.58,31.58,0,0,1-4.31.31c-.71,0-1.44,0-2.18-.08H709c-.73.05-1.45.08-2.17.08s-1.44,0-2.18-.08h0c-.71-.06-1.44-.13-2.17-.23h0a28.52,28.52,0,0,1-4.18-.9,25,25,0,0,1-4.14-1.68v0a23.9,23.9,0,0,1-3.72-2.39h0a25.16,25.16,0,0,1-3.19-3,27.87,27.87,0,0,1-2.68-3.48,31.45,31.45,0,0,1-2-3.67l0,0a36.22,36.22,0,0,1-1.57-4l-.32-1-.39,1.18a33.82,33.82,0,0,1-1.59,4,31.33,31.33,0,0,1-2,3.65A25.41,25.41,0,0,1,674,269h0a25.47,25.47,0,0,1-3.21,2.94,24.3,24.3,0,0,1-3.75,2.32,25.93,25.93,0,0,1-4.13,1.61,29.72,29.72,0,0,1-4.16.89,32.77,32.77,0,0,1-4.36.31l-1.14,0v0H626.86a31.58,31.58,0,0,1-4.31-.31,29.13,29.13,0,0,1-4.16-.93v0a25,25,0,0,1-4.06-1.63,24.57,24.57,0,0,1-3.69-2.29,25.23,25.23,0,0,1-3.17-2.89,26.79,26.79,0,0,1-2.71-3.36,31.35,31.35,0,0,1-2-3.57,38.77,38.77,0,0,1-1.64-3.91l-7.42-20.69c-.21.39-.42.78-.64,1.17a73.27,73.27,0,0,1-4,6.3c-1.47,2.1-3,4.09-4.61,5.95s-3.41,3.78-5.27,5.58-3.8,3.49-5.76,5.06-4,3-6.11,4.4-4.32,2.66-6.5,3.78-4.52,2.18-6.83,3.09-4.72,1.71-7.15,2.39a76.42,76.42,0,0,1-7.46,1.71q-3.75.68-7.67,1c-1.77.16-3.56.26-5.35.3v0h-30q-3.94,0-7.89-.32h0c-2.56-.21-5.12-.54-7.66-1s-5.05-1-7.41-1.63c-2-.55-4-1.17-5.9-1.86h-.05l-1.17-.45a71.21,71.21,0,0,1-6.83-3,72.51,72.51,0,0,1-6.49-3.7,71.56,71.56,0,0,1-6.07-4.36,75.19,75.19,0,0,1-5.69-5l-1.33-1.32c-.07.69-.18,1.4-.31,2.11a24.74,24.74,0,0,1-1.26,4.48,23.83,23.83,0,0,1-2.18,4.27h0a22.08,22.08,0,0,1-3,3.7v0a23.26,23.26,0,0,1-3.71,3,24.15,24.15,0,0,1-4.27,2.18,25.13,25.13,0,0,1-4.46,1.26,25.82,25.82,0,0,1-4.65.44c-.41,0-.82,0-1.23,0Z"/></svg>