<svg id="Слой_1" data-name="Слой 1" xmlns="http://www.w3.org/2000/svg" xmlns:xlink="http://www.w3.org/1999/xlink" viewBox="0 0 853.77 361.74"><defs><style>.cls-1{fill-rule:evenodd;fill:url(#Безымянный_градиент_10);}.cls-2{fill:#fff;}</style><linearGradient id="Безымянный_градиент_10" x1="138.83" y1="311.11" x2="138.83" y2="52.63" gradientUnits="userSpaceOnUse"><stop offset="0" stop-color="#ad38ec"/><stop offset="0.52" stop-color="#ff1f9b"/><stop offset="1" stop-color="#fa8146"/></linearGradient></defs><path class="cls-1" d="M147.51,85V121a6.57,6.57,0,0,0,11.21,4.64l61.75-61.75a6.57,6.57,0,0,0-4.64-11.21H179.91A32.46,32.46,0,0,0,147.51,85M55.24,176.67v35.92a6.56,6.56,0,0,0,11.21,4.64l61.75-61.75a6.57,6.57,0,0,0-4.65-11.21H87.63A32.46,32.46,0,0,0,55.24,176.67Zm0,91.93v35.92a6.56,6.56,0,0,0,11.21,4.64l61.75-61.74a6.57,6.57,0,0,0-4.65-11.21H87.63A32.45,32.45,0,0,0,55.24,268.6Zm92.27-91.93v35.92a6.56,6.56,0,0,0,11.21,4.64l61.75-61.75a6.57,6.57,0,0,0-4.64-11.21H179.91A32.47,32.47,0,0,0,147.51,176.67ZM55.24,85V121a6.57,6.57,0,0,0,11.21,4.64L128.2,63.84a6.57,6.57,0,0,0-4.65-11.21H87.63A32.45,32.45,0,0,0,55.24,85Z"/><path class="cls-2" d="M288.13,263.69a12.45,12.45,0,0,0,2.26-.19,10.23,10.23,0,0,0,2-.54,9.41,9.41,0,0,0,1.8-.88,8.94,8.94,0,0,0,1.45-1.15,9.18,9.18,0,0,0,1.18-1.45h0a9.73,9.73,0,0,0,.88-1.74,9.91,9.91,0,0,0,.56-2,12.61,12.61,0,0,0,.17-2.18V174.05l37-.08h.05a8.18,8.18,0,0,0,2.2-.14h0c6-1.29,7.36-14.46,0-16a8.38,8.38,0,0,0-2.23-.14h-.05l-37-.08V144.73c0-2,.14-9.81.41-11.65a30.16,30.16,0,0,1,1.27-5.37,24.09,24.09,0,0,1,2.1-4.54,21.29,21.29,0,0,1,3-3.94,20.38,20.38,0,0,1,3.89-3.08,23.59,23.59,0,0,1,4.53-2.15,29.23,29.23,0,0,1,5.29-1.3,38.77,38.77,0,0,1,5.69-.41,62,62,0,0,1,10.55,1.31s0,0,.08,0l1.63.3.61.08a8.69,8.69,0,0,0,1.58-.12,7.56,7.56,0,0,0,1.48-.42,7.38,7.38,0,0,0,1.32-.65,7.08,7.08,0,0,0,1.11-.87,6.28,6.28,0,0,0,.89-1,6.59,6.59,0,0,0,.66-1.24,7.44,7.44,0,0,0,.4-1.39,7.55,7.55,0,0,0,.13-1.48,7.08,7.08,0,0,0-.09-1.22,6.86,6.86,0,0,0-.31-1.07v0a5.66,5.66,0,0,0-.51-1,6,6,0,0,0-.74-.91,7.91,7.91,0,0,0-1-.91,12.23,12.23,0,0,0-1.41-.89l0,0a18.18,18.18,0,0,0-1.7-.82c-.63-.27-1.32-.53-2.07-.77l-.08,0c-.53-.16-1.18-.33-2-.53s-1.5-.36-2.26-.52-1.42-.28-2.25-.42h0c-1-.16-1.78-.28-2.45-.37s-1.63-.2-2.54-.29c-.71-.06-1.55-.13-2.53-.19s-2.06-.11-2.77-.13l-2.63,0a57.93,57.93,0,0,0-9.06.67c-.85.14-1.69.3-2.51.48a44,44,0,0,0-5.43,1.54,35.42,35.42,0,0,0-6.86,3.33h0a31.33,31.33,0,0,0-5.62,4.51h0a31.42,31.42,0,0,0-4.48,5.7v0a36.64,36.64,0,0,0-3.3,7v0a45.56,45.56,0,0,0-2,8c-.44,2.78-.67,11.76-.67,15.1v14.55l-18.39.07a7.89,7.89,0,0,0-2.2.06c-7.48,1.33-7.08,14.95,0,16.21a7.89,7.89,0,0,0,2.2.06l18.39.09v79.52a11.41,11.41,0,0,0,.18,2.12,12.16,12.16,0,0,0,.56,2h0a9.29,9.29,0,0,0,.88,1.76,8.86,8.86,0,0,0,1.21,1.45,9.68,9.68,0,0,0,1.49,1.2,9.84,9.84,0,0,0,1.78.87,10.92,10.92,0,0,0,2,.58,12,12,0,0,0,2.05.16h.15M378,173.94V253.1a12.35,12.35,0,0,0,.18,2.25,11.16,11.16,0,0,0,.59,2.07,10.26,10.26,0,0,0,.92,1.81v0a9.69,9.69,0,0,0,1.24,1.51v0l0,0h0a9.47,9.47,0,0,0,1.52,1.24,9.58,9.58,0,0,0,1.81.91,10.74,10.74,0,0,0,2.05.59c.31.05.64.1,1,.13s.8,0,1.24,0a13.27,13.27,0,0,0,2.24-.17,11.06,11.06,0,0,0,2.06-.59,9.34,9.34,0,0,0,1.81-.92,9.83,9.83,0,0,0,1.52-1.26v0a9.69,9.69,0,0,0,1.24-1.51v0a10.26,10.26,0,0,0,.92-1.81,11.16,11.16,0,0,0,.59-2.07,12.5,12.5,0,0,0,.18-2.25V108a11.78,11.78,0,0,0-.18-2.16,10.57,10.57,0,0,0-.57-1.94,9.55,9.55,0,0,0-.91-1.74,9.29,9.29,0,0,0-1.22-1.45,9.42,9.42,0,0,0-1.52-1.17,10.12,10.12,0,0,0-1.83-.92,11.91,11.91,0,0,0-2.07-.54,13.66,13.66,0,0,0-4.54,0,12.15,12.15,0,0,0-2.07.54h0a10.15,10.15,0,0,0-1.8.91,8.54,8.54,0,0,0-1.51,1.17,8.9,8.9,0,0,0-1.23,1.46,9.14,9.14,0,0,0-.91,1.73,10.57,10.57,0,0,0-.57,1.94A11.78,11.78,0,0,0,378,108v65.93ZM579.12,157.6l21.55,60,13,36.08a25.79,25.79,0,0,0,1.06,2.51,16.7,16.7,0,0,0,1.17,2,13.32,13.32,0,0,0,1.34,1.75,12,12,0,0,0,1.5,1.32,11,11,0,0,0,1.65,1,12.11,12.11,0,0,0,1.91.74v0a16,16,0,0,0,2.18.46c9.39,1.33,15.48-2.44,18.34-11.14L667,179l22.77,69c2.45,7.44,6.41,17.44,19.5,15.58a14.38,14.38,0,0,0,2.17-.47v0a11.88,11.88,0,0,0,1.92-.74,11.48,11.48,0,0,0,1.64-1,12,12,0,0,0,1.5-1.35h0a13.86,13.86,0,0,0,1.34-1.73,16.42,16.42,0,0,0,1.15-2,24.8,24.8,0,0,0,1.08-2.52l34.55-95.8h0l.6-1.84.29-1.34c.07-.48.11-.93.16-1.41v-.66a10.81,10.81,0,0,0-.17-2,10.23,10.23,0,0,0-.52-1.84h0a8.48,8.48,0,0,0-.83-1.62,7.87,7.87,0,0,0-1.1-1.32,8.65,8.65,0,0,0-1.41-1.09,9.44,9.44,0,0,0-1.69-.82,11,11,0,0,0-1.91-.52,13.27,13.27,0,0,0-2.17-.17,10.24,10.24,0,0,0-1.59.11h0a9.54,9.54,0,0,0-1.51.38h0a9.26,9.26,0,0,0-1.39.6,9.54,9.54,0,0,0-1.29.85,10,10,0,0,0-1.2,1.08,11.15,11.15,0,0,0-1.07,1.37,14.07,14.07,0,0,0-.92,1.58,18.81,18.81,0,0,0-.77,1.78h0l-8.92,25.88-21.42,62.2L677.34,151a19.88,19.88,0,0,0-.73-1.92,16.46,16.46,0,0,0-.88-1.6,10.84,10.84,0,0,0-1-1.36,8.89,8.89,0,0,0-1-1,7.7,7.7,0,0,0-1.2-.78,8.52,8.52,0,0,0-1.4-.57,9.43,9.43,0,0,0-1.61-.37,13.2,13.2,0,0,0-1.9-.12,12.38,12.38,0,0,0-1.83.12,10.33,10.33,0,0,0-1.59.35,8.3,8.3,0,0,0-2.63,1.34,9,9,0,0,0-1.1,1,11.4,11.4,0,0,0-1,1.34,11.59,11.59,0,0,0-.84,1.54,18.06,18.06,0,0,0-.77,2l-8.32,26-20.1,62.92L599.09,151a17.47,17.47,0,0,0-.76-1.92,15.08,15.08,0,0,0-.87-1.6,11.48,11.48,0,0,0-1-1.36,7.48,7.48,0,0,0-1-1v0a8.09,8.09,0,0,0-1.22-.77,8.57,8.57,0,0,0-1.5-.58,11.63,11.63,0,0,0-1.73-.38,15.25,15.25,0,0,0-2.08-.12,13.51,13.51,0,0,0-2.29.19,11.55,11.55,0,0,0-2,.54,10.64,10.64,0,0,0-1.82.87,9.93,9.93,0,0,0-1.53,1.18,9.38,9.38,0,0,0-1.22,1.44,9.28,9.28,0,0,0-.92,1.69l0,.12a10.79,10.79,0,0,0-.51,1.79,11,11,0,0,0-.19,2v.5l.13,1.16.27,1.22s.13.54.15.62Zm-24.35,27.92a55.25,55.25,0,0,0-1.94-5.49,56.27,56.27,0,0,0-2.43-5.16q-1.26-2.33-3-4.87h0q-1.46-2.15-3.53-4.64c-1.3-1.57-2.65-3-4-4.41s-3-2.85-4.41-4-3-2.35-4.74-3.52a56.66,56.66,0,0,0-5-3,57.65,57.65,0,0,0-5.26-2.46,56.89,56.89,0,0,0-5.6-1.92q-2.83-.83-5.74-1.37-3.19-.58-6-.83-3.09-.27-6.3-.27t-6.29.27c-1.92.17-3.94.44-6,.83s-3.86.82-5.75,1.37a55.92,55.92,0,0,0-15.86,7.38c-1.73,1.16-3.32,2.34-4.75,3.52s-3.05,2.65-4.44,4l0,0c-1.36,1.36-2.7,2.82-4,4.39s-2.56,3.2-3.53,4.63l0,0a54,54,0,0,0-3,4.86,57.93,57.93,0,0,0-4.39,10.66c-.54,1.84-1,3.75-1.37,5.71s-.62,3.79-.81,5.94-.3,4.32-.3,6.14q0,3.18.27,6.24.24,2.8.83,6a55.71,55.71,0,0,0,1.37,5.78c.58,2,1.22,3.87,1.89,5.55s1.56,3.6,2.45,5.31a55.23,55.23,0,0,0,3,5,58.17,58.17,0,0,0,3.51,4.72c1.29,1.56,2.64,3.05,4,4.45s3,2.82,4.38,4a58.38,58.38,0,0,0,4.74,3.45h0a54.9,54.9,0,0,0,5,2.95c1.72.89,3.5,1.7,5.31,2.42v0q2.88,1.14,5.52,1.9a58.46,58.46,0,0,0,5.81,1.31c2.15.39,4.17.66,6,.82q3.12.26,6.29.26t6.29-.26c1.87-.16,3.89-.43,6-.82a54.67,54.67,0,0,0,5.76-1.31c1.34-.38,2.64-.79,3.87-1.23h.08l1.66-.66a52.93,52.93,0,0,0,5.28-2.41,55.8,55.8,0,0,0,5-2.95,56.58,56.58,0,0,0,4.76-3.46q2.13-1.74,4.37-4c1.4-1.4,2.75-2.89,4-4.45a55.69,55.69,0,0,0,3.54-4.76q1.65-2.49,3-5a58.34,58.34,0,0,0,2.45-5.3c.67-1.68,1.3-3.54,1.9-5.55s1-3.85,1.36-5.79.66-4.08.83-6,.27-4.12.27-6.24c0-1.82-.11-3.87-.31-6.13s-.46-4.14-.8-6A56.65,56.65,0,0,0,554.77,185.52Zm-21,6.18a37.28,37.28,0,0,0-1.23-3.6q-.74-1.82-1.56-3.39c-.53-1-1.16-2.08-1.89-3.19h0a37.56,37.56,0,0,0-2.24-3c-.84-1-1.7-2-2.57-2.9s-1.9-1.87-2.81-2.65-1.92-1.54-3-2.31a37.1,37.1,0,0,0-3.19-2A34.23,34.23,0,0,0,511.9,167a35.63,35.63,0,0,0-3.56-1.26c-1.21-.36-2.43-.66-3.67-.9s-2.64-.44-3.84-.55-2.65-.17-4-.17-2.7.06-4,.18-2.51.29-3.85.54-2.46.54-3.66.9a36.78,36.78,0,0,0-3.57,1.26,35.48,35.48,0,0,0-3.36,1.62,36,36,0,0,0-3.19,2c-1.1.76-2.11,1.54-3,2.31s-1.95,1.74-2.84,2.65l0,0c-.87.89-1.72,1.85-2.55,2.87a37.22,37.22,0,0,0-2.25,3v0a34.89,34.89,0,0,0-1.89,3.19,37,37,0,0,0-1.56,3.39c-.47,1.19-.89,2.39-1.24,3.6s-.64,2.46-.87,3.74-.4,2.49-.52,3.9-.19,2.84-.19,4c0,1.39.06,2.75.17,4.09s.28,2.54.53,3.93a38.45,38.45,0,0,0,.87,3.79c.38,1.33.78,2.54,1.21,3.65s1,2.36,1.56,3.48,1.2,2.19,1.91,3.29a37.74,37.74,0,0,0,2.24,3.09,36.4,36.4,0,0,0,8.39,7.8h0a35.26,35.26,0,0,0,3.2,1.93,37.39,37.39,0,0,0,3.39,1.59v0a36.69,36.69,0,0,0,3.52,1.25,37.13,37.13,0,0,0,3.7.86,38.11,38.11,0,0,0,3.85.54c1.32.11,2.66.17,4,.17s2.69-.06,4-.17a37.89,37.89,0,0,0,3.86-.54,34.47,34.47,0,0,0,3.67-.86c.85-.25,1.68-.52,2.47-.81h0l1.06-.43a31,31,0,0,0,3.37-1.58c1-.55,2.09-1.2,3.18-1.93a35.59,35.59,0,0,0,5.82-4.89c.89-.92,1.75-1.89,2.58-2.92a35.78,35.78,0,0,0,2.25-3.12c.71-1.09,1.34-2.18,1.9-3.26s1.09-2.28,1.56-3.48.83-2.32,1.21-3.65.64-2.52.87-3.79.42-2.68.53-3.93.17-2.7.17-4.09c0-1.19-.07-2.54-.2-4s-.29-2.72-.51-3.91A37.06,37.06,0,0,0,533.77,191.7ZM389.78,277c-.42,0-.84,0-1.25,0a25.63,25.63,0,0,1-4.64-.44,24.89,24.89,0,0,1-4.46-1.26,23.69,23.69,0,0,1-4.26-2.17,22.7,22.7,0,0,1-3.69-3s0,0,0,0a22,22,0,0,1-3-3.7h0a23.46,23.46,0,0,1-2.17-4.27,24,24,0,0,1-1.27-4.48,25.82,25.82,0,0,1-.44-4.65V187.19l-25.06,0-.13,0v0h-.09v66.43a25.26,25.26,0,0,1-.44,4.59,24.34,24.34,0,0,1-1.24,4.39v0a23.1,23.1,0,0,1-2.17,4.18h0a21.94,21.94,0,0,1-3,3.66,22.44,22.44,0,0,1-3.7,2.92,22.85,22.85,0,0,1-4.2,2.09,25,25,0,0,1-4.4,1.22,26.51,26.51,0,0,1-4.57.4H288a26,26,0,0,1-4.4-.43,24.5,24.5,0,0,1-4.4-1.2,23.54,23.54,0,0,1-4.18-2.13,23.19,23.19,0,0,1-3.69-2.93,22.32,22.32,0,0,1-3-3.64,23.38,23.38,0,0,1-2.18-4.16h0a24.49,24.49,0,0,1-1.73-9V187.37h-6a20.17,20.17,0,0,1-3.6-.32,19.41,19.41,0,0,1-5.56-1.9,19.11,19.11,0,0,1-4.8-3.65h0a19.77,19.77,0,0,1-3.48-5,20.26,20.26,0,0,1-1-2.41,23.11,23.11,0,0,1-.71-2.5c-.21-.92-.36-3.17-.44-4a22.48,22.48,0,0,1,.44-7.66,22,22,0,0,1,.72-2.54,20,20,0,0,1,4.47-7.35,18.74,18.74,0,0,1,10.38-5.53,21.53,21.53,0,0,1,2.93-.32h0c.5,0,1,0,1.51,0h5.13V143a167.26,167.26,0,0,1,.87-17.14,58.92,58.92,0,0,1,2.58-10.41,49.58,49.58,0,0,1,4.51-9.53,45.56,45.56,0,0,1,6.36-8.13h0a44.6,44.6,0,0,1,8-6.39v0a49.21,49.21,0,0,1,9.48-4.58,57.35,57.35,0,0,1,10.34-2.64,69.42,69.42,0,0,1,11.15-.89h22.53a136.34,136.34,0,0,1,17.1.79h0c1.17.15,2.15.29,2.92.42s1.82.33,2.76.52h0c1,.2,1.89.41,2.75.63h0c.79.2,1.68.44,2.63.72l.29.1c1.09.35,2.15.75,3.17,1.18.8.35,1.6.73,2.38,1.14,3.6-3.15,7-5.51,14.15-5.51h28a25.72,25.72,0,0,1,4,.39A25.36,25.36,0,0,1,425,84.92,23.86,23.86,0,0,1,429.22,87a22.18,22.18,0,0,1,3.71,2.9A22,22,0,0,1,436,93.54a22.38,22.38,0,0,1,2.22,4.19,23.75,23.75,0,0,1,1.3,4.45,25.06,25.06,0,0,1,.44,4.61v45.36c.58-.59,1.18-1.17,1.78-1.74,1.8-1.73,3.74-3.41,5.8-5s4.14-3.11,6.16-4.42a77.11,77.11,0,0,1,20.6-9.22h0a76.22,76.22,0,0,1,7.44-1.71q3.75-.68,7.67-1c2.61-.22,5.24-.34,7.89-.34h29v0c2.12,0,4.22.14,6.31.31q3.9.33,7.65,1t7.38,1.67c2.4.67,4.78,1.45,7.12,2.36A71.39,71.39,0,0,1,568,140.68l.33.22c.2-.32.4-.64.61-.94a22.13,22.13,0,0,1,6.78-6.43,23.22,23.22,0,0,1,4.22-2.07,24.85,24.85,0,0,1,4.39-1.18,26.42,26.42,0,0,1,4.54-.39H616.3a27.37,27.37,0,0,1,3.88.28h0a24.18,24.18,0,0,1,3.72.79,22.16,22.16,0,0,1,3.75,1.52A21.24,21.24,0,0,1,631,134.6h0a20.82,20.82,0,0,1,2.83,2.66,23.07,23.07,0,0,1,2.3,3.08,28.3,28.3,0,0,1,1.71,3.11,31.07,31.07,0,0,1,1.33,3.29l3.11,9.09,2.84-8.89a30.81,30.81,0,0,1,1.34-3.5,26.12,26.12,0,0,1,1.73-3.22,24.24,24.24,0,0,1,2.35-3.06,23.17,23.17,0,0,1,2.83-2.63,21.25,21.25,0,0,1,6.86-3.54,24.09,24.09,0,0,1,3.63-.82,26.14,26.14,0,0,1,3.71-.27h25.6V130c.63-.05,1.24-.07,1.86-.07a25.74,25.74,0,0,1,3.79.28,22.92,22.92,0,0,1,3.7.83,21.48,21.48,0,0,1,6.93,3.66,20.17,20.17,0,0,1,2.76,2.65,22.87,22.87,0,0,1,2.27,3.06l0,0a27.36,27.36,0,0,1,1.65,3.12,31.47,31.47,0,0,1,1.31,3.38l2.84,8.81,3.1-9h0a30.27,30.27,0,0,1,1.4-3.41,26.23,26.23,0,0,1,1.86-3.15,24.44,24.44,0,0,1,2.37-2.94,24.12,24.12,0,0,1,2.78-2.54,21,21,0,0,1,3.17-2.05,21.88,21.88,0,0,1,3.45-1.49,23.49,23.49,0,0,1,3.63-.9,23.11,23.11,0,0,1,3.73-.32h27.46a26.2,26.2,0,0,1,4.42.38,24,24,0,0,1,4.26,1.14,23.1,23.1,0,0,1,4.15,2,22.22,22.22,0,0,1,3.61,2.82,21.66,21.66,0,0,1,3,3.57,22,22,0,0,1,2.15,4.07h0a22.6,22.6,0,0,1,1.25,4.29,24.31,24.31,0,0,1,.43,4.46c0,.35,0,.86-.06,1.5-.08,1-.17,1.77-.32,2.76l-.24,1.3c-.38,1.51-.71,2.69-1.22,4.14l0,0L760.1,258.21a38,38,0,0,1-1.65,3.92,30.34,30.34,0,0,1-2.05,3.56,26.79,26.79,0,0,1-2.71,3.36v0a25,25,0,0,1-3.17,2.86,24,24,0,0,1-3.68,2.29,26.28,26.28,0,0,1-4.06,1.63v0a27.48,27.48,0,0,1-4.15.94,31.58,31.58,0,0,1-4.31.31c-.72,0-1.44,0-2.18-.08H709c-.73.05-1.45.08-2.17.08s-1.44,0-2.18-.08h0c-.71-.05-1.44-.13-2.17-.23h0a28.67,28.67,0,0,1-4.17-.9,25,25,0,0,1-4.14-1.68v0a23.9,23.9,0,0,1-3.72-2.39h0a24.5,24.5,0,0,1-3.19-3,27.87,27.87,0,0,1-2.68-3.48,32.15,32.15,0,0,1-2-3.67l0,0a36.22,36.22,0,0,1-1.57-4l-.32-1-.39,1.18a33.82,33.82,0,0,1-1.59,4,31.33,31.33,0,0,1-2,3.65A26.23,26.23,0,0,1,674,269h0a24.74,24.74,0,0,1-3.2,2.94,24.3,24.3,0,0,1-3.75,2.32,26.31,26.31,0,0,1-4.13,1.61,29.56,29.56,0,0,1-4.17.89,32.5,32.5,0,0,1-4.35.31l-1.14,0v0H626.86a31.84,31.84,0,0,1-4.32-.31,29.31,29.31,0,0,1-4.15-.93v0a25,25,0,0,1-4.06-1.63,23.6,23.6,0,0,1-3.69-2.29,24.49,24.49,0,0,1-3.17-2.89,26.79,26.79,0,0,1-2.71-3.36,31.18,31.18,0,0,1-2-3.56,40,40,0,0,1-1.64-3.92l-7.42-20.69c-.21.39-.42.78-.64,1.17a72.65,72.65,0,0,1-4,6.31,74.85,74.85,0,0,1-4.6,5.94q-2.48,2.88-5.28,5.58c-1.87,1.81-3.79,3.49-5.75,5.06s-4,3-6.12,4.4a74.23,74.23,0,0,1-6.49,3.78,72.06,72.06,0,0,1-6.84,3.09q-3.5,1.36-7.14,2.39a76,76,0,0,1-7.47,1.71c-2.49.45-5.05.78-7.66,1-1.77.15-3.56.25-5.35.3v0h-30q-3.94,0-7.89-.32h0c-2.57-.21-5.12-.54-7.66-1s-5.05-1-7.42-1.63c-2-.55-4-1.17-5.89-1.86h-.05l-1.17-.45a71.21,71.21,0,0,1-6.83-3,74.11,74.11,0,0,1-6.5-3.7c-2.08-1.34-4.11-2.8-6.07-4.36s-3.82-3.21-5.68-5l-1.33-1.33c-.08.69-.18,1.4-.31,2.11a24.74,24.74,0,0,1-1.26,4.48,23.83,23.83,0,0,1-2.18,4.27h0a22.59,22.59,0,0,1-3,3.7v0a23.26,23.26,0,0,1-3.71,3,23.83,23.83,0,0,1-4.27,2.18,25.37,25.37,0,0,1-4.46,1.26,25.82,25.82,0,0,1-4.65.44c-.41,0-.82,0-1.23,0Z"/></svg>