<svg width="208" height="50" viewBox="0 0 208 50" fill="none" xmlns="http://www.w3.org/2000/svg">
<path d="M108.756 27.1373V38.1688H104.3V28.3667C104.3 23.756 102.65 22.6117 100.405 22.6117C97.8303 22.6117 96.51 24.9172 96.51 28.3667V38.1688H92.0537V19.1455H96.51V23.7561C96.8634 22.3349 97.6497 21.0692 98.7525 20.1465C99.8554 19.2238 101.216 18.6932 102.633 18.6331C105.423 18.4965 108.756 20.2212 108.756 27.1373Z" fill="#010101"/>
<path d="M158.336 27.1373V38.1688H153.88V28.3667C153.88 23.756 152.229 22.6117 149.985 22.6117C147.393 22.6117 146.073 24.9172 146.073 28.3667V38.1688H141.617V19.1455H146.073V23.7561C146.427 22.3322 147.216 21.0645 148.322 20.1415C149.428 19.2185 150.793 18.6896 152.213 18.6331C154.986 18.4965 158.336 20.2212 158.336 27.1373Z" fill="#010101"/>
<path d="M114.911 16.7546C114.911 13.2368 116.562 11.6316 119.863 11.6316H123.758V15.6961H119.301V19.1114H123.758V23.1413H119.301V38.1689H114.911V23.1926H111V19.1456H114.911V16.7546Z" fill="#010101"/>
<path d="M177.266 23.1072H173.371V19.0603H177.266V13.9373H181.722V19.0603H186.179V23.0902H181.722V34.0366H186.179V38.169H182.284C178.884 38.169 177.332 36.4613 177.332 32.9606L177.266 23.1072Z" fill="#010101"/>
<path d="M133.117 16.1913C134.503 16.1913 135.626 15.0292 135.626 13.5957C135.626 12.1621 134.503 11 133.117 11C131.732 11 130.608 12.1621 130.608 13.5957C130.608 15.0292 131.732 16.1913 133.117 16.1913Z" fill="#010101"/>
<path d="M138.828 34.0537L135.494 34.0708V19.0603H127.143V23.1075H131.038V34.0537H127.143V38.0838H138.828V34.0537Z" fill="#010101"/>
<path d="M88.7027 34.0535L82.5795 34.0706V15.6107H88.7027V11.5806H72V15.6107H78.1232V34.0535L72 34.0365V38.0666L88.7027 38.0837V34.0535Z" fill="#010101"/>
<path d="M167.101 16.1913C168.486 16.1913 169.609 15.0292 169.609 13.5957C169.609 12.1621 168.486 11 167.101 11C165.715 11 164.592 12.1621 164.592 13.5957C164.592 15.0292 165.715 16.1913 167.101 16.1913Z" fill="#010101"/>
<path d="M172.811 34.0537L169.461 34.0708V19.0603H161.109V23.1075H165.004V34.0537H161.109V38.0838H172.811V34.0537Z" fill="#010101"/>
<path d="M202.899 19.0605L197.948 32.3292L193.491 19.0605H188.54L195.786 37.5035L194.416 40.321C194.326 40.5143 194.186 40.6778 194.011 40.7925C193.835 40.9073 193.633 40.9684 193.425 40.9697H189.101V45H192.402C195.703 45 196.858 44.9998 198.542 40.9697L207.999 19.0605H202.899Z" fill="black"/>
<path d="M39.1667 50H10.8333C4.83333 50 0 45.1667 0 39.1667V10.8333C0 4.83333 4.83333 0 10.8333 0H39.1667C45.1667 0 50 4.83333 50 10.8333V39.1667C50 45.1667 45.1667 50 39.1667 50Z" fill="black"/>
<path d="M33.3199 16.5669C26.0399 16.5669 24.9999 24.3794 24.9999 24.3794C24.9999 24.3794 23.9599 16.5669 16.6799 16.5669C14.4733 16.5669 12.357 17.4447 10.7967 19.0075C9.23643 20.5703 8.35986 22.6901 8.35986 24.9002C8.35986 27.1104 9.23643 29.2299 10.7967 30.7927C12.357 32.3555 14.4733 33.2336 16.6799 33.2336C23.9599 33.2336 24.9999 25.4211 24.9999 25.4211C24.9999 25.4211 26.0399 33.2336 33.3199 33.2336C35.5265 33.2336 37.6427 32.3555 39.203 30.7927C40.7633 29.2299 41.6399 27.1104 41.6399 24.9002C41.6399 22.6901 40.7633 20.5703 39.203 19.0075C37.6427 17.4447 35.5265 16.5669 33.3199 16.5669Z" fill="white"/>
</svg>
