<svg width="200" height="50" viewBox="0 0 200 50" fill="none" xmlns="http://www.w3.org/2000/svg">
<path d="M54.0538 23.7317V39.9546H47.5004V25.5397C47.5004 18.7592 45.0732 17.0763 41.7722 17.0763C37.9858 17.0763 36.0441 20.4669 36.0441 25.5397V39.9546H29.4907V11.9789H36.0441V18.7593C36.5638 16.6694 37.7202 14.8079 39.342 13.451C40.9639 12.0941 42.965 11.3138 45.0489 11.2254C49.1509 11.0245 54.0538 13.5609 54.0538 23.7317Z" fill="#010101"/>
<path d="M126.967 23.7317V39.9546H120.413V25.5397C120.413 18.7592 117.986 17.0763 114.685 17.0763C110.875 17.0763 108.933 20.4669 108.933 25.5397V39.9546H102.379V11.9789H108.933V18.7593C109.454 16.6654 110.614 14.801 112.24 13.4437C113.867 12.0863 115.874 11.3085 117.962 11.2254C122.04 11.0245 126.967 13.5609 126.967 23.7317Z" fill="#010101"/>
<path d="M63.1059 8.46311C63.1059 3.28982 65.5331 0.929199 70.3874 0.929199H76.1155V6.90642H69.5622V11.929H76.1155V17.8554H69.5622V39.9549H63.1059V17.9308H57.3535V11.9793H63.1059V8.46311Z" fill="#010101"/>
<path d="M154.805 17.805H149.077V11.8535H154.805V4.31958H161.358V11.8535H167.912V17.7798H161.358V33.8777H167.912V39.9548H162.183C157.183 39.9548 154.902 37.4434 154.902 32.2952L154.805 17.805Z" fill="#010101"/>
<path d="M89.8788 7.63436C91.9163 7.63436 93.5681 5.92535 93.5681 3.81718C93.5681 1.70901 91.9163 0 89.8788 0C87.8412 0 86.1895 1.70901 86.1895 3.81718C86.1895 5.92535 87.8412 7.63436 89.8788 7.63436Z" fill="#010101"/>
<path d="M98.2767 33.9025L93.3738 33.9276V11.8533H81.0923V17.8051H86.8204V33.9025H81.0923V39.8292H98.2767V33.9025Z" fill="#010101"/>
<path d="M24.563 33.9025L15.5582 33.9276V6.78043H24.563V0.85376H0V6.78043H9.00482V33.9025L0 33.8774V39.8041L24.563 39.8292V33.9025Z" fill="#010101"/>
<path d="M139.854 7.63436C141.892 7.63436 143.544 5.92535 143.544 3.81718C143.544 1.70901 141.892 0 139.854 0C137.817 0 136.165 1.70901 136.165 3.81718C136.165 5.92535 137.817 7.63436 139.854 7.63436Z" fill="#010101"/>
<path d="M148.253 33.9025L143.325 33.9276V11.8533H131.044V17.8051H136.772V33.9025H131.044V39.8292H148.253V33.9025Z" fill="#010101"/>
<path d="M192.5 11.8535L185.218 31.3664L178.665 11.8535H171.383L182.039 38.9757L180.024 43.1191C179.892 43.4034 179.686 43.6438 179.428 43.8125C179.171 43.9813 178.873 44.0712 178.568 44.0731H172.209V50.0001H177.063C181.917 50.0001 183.616 49.9998 186.092 44.0731L200 11.8535H192.5Z" fill="black"/>
</svg>
