<?xml version="1.0" encoding="UTF-8"?>
<!DOCTYPE svg PUBLIC "-//W3C//DTD SVG 1.1//EN" "http://www.w3.org/Graphics/SVG/1.1/DTD/svg11.dtd">
<!-- Creator: CorelDRAW 2018 (64-Bit) -->
<svg xmlns="http://www.w3.org/2000/svg" xml:space="preserve" width="13.9288mm" height="16.5028mm" version="1.1" style="shape-rendering:geometricPrecision; text-rendering:geometricPrecision; image-rendering:optimizeQuality; fill-rule:evenodd; clip-rule:evenodd"
viewBox="0 0 107.02 126.79"
 xmlns:xlink="http://www.w3.org/1999/xlink">
 <defs>
  <style type="text/css">
   <![CDATA[
    .fil0 {fill:#1D2F30}
    .fil1 {fill:#C8F751}
    .fil2 {fill:#F0E511;fill-rule:nonzero}
   ]]>
  </style>
 </defs>
 <g id="Слой_x0020_1">
  <metadata id="CorelCorpID_0Corel-Layer"/>
  <g id="_1424693612576">
   <path class="fil0" d="M5.87 19.79l13.92 0 0 -13.83 3.69 -5.97 63.74 0 0 19.79 19.79 0 0 63.8 -8.06 3.84 -11.74 0 0 15.95 -8.06 3.62 -31.53 0 0 16.17 -8.05 3.62 -19.79 0 0 -21.81 -19.79 0c0,-26.39 0,-52.83 0,-79.22l3.69 -5.97 2.18 0zm33.87 24.18l0 21.97 0 2.18 19.9 0 7.79 -4.33 0 -24.16 -24.16 0 -3.53 4.33zm3.53 35.26l-5.25 3.25 0 16.54 -10.18 0 0 -71.61 49.77 0 0 51.81 -34.34 0 0 0zm-27.81 -55.07l4.32 1.6 0 -1.6 -4.32 0zm48.76 -19.79l14.94 1.6 0 13.83 3.69 0 0 -15.43 -18.63 0zm-40.75 21.39l-3.69 0 3.48 73.26 0.21 0 0 -73.26zm0 77.62l-3.69 1.6 3.69 -1.6zm4.36 0.98l11.74 2.64 0 -3.62 -11.74 0 0 0.98zm19.79 -16.94l31.53 0 0 -3.84 -31.53 0 0 3.84zm39.59 -61.67l11.74 0 3.69 26.49 0 -28.1 -15.43 0 0 1.6zm-4.36 61.67l-3.69 0 3.69 7.31 0 -7.31zm-39.59 19.58l-3.69 0 3.69 7.41 0 -7.41z"/>
   <path class="fil1" d="M23.48 24.16l-15.43 0 0 74.86 15.43 0 0 -74.86zm4.36 -19.79l0 15.43 55.01 0 0 -15.43 -55.01 0zm74.81 19.79l-15.43 0 0 55.07 15.43 0 0 -55.07zm-19.79 74.86l0 -15.43 -35.22 0 0 15.43 35.22 0zm-39.59 19.79l0 -15.43 -15.43 0 0 15.43 15.43 0zm4.36 -74.81l0 15.43 15.43 0 0 -15.43 -15.43 0z"/>
   <path class="fil0" d="M5.87 19.79l13.92 0 0 -13.83 3.69 -5.97 63.74 0 0 19.79 19.79 0 0 63.8 -8.06 3.84 -11.74 0 0 15.95 -8.06 3.62 -31.53 0 0 16.17 -8.05 3.62 -19.79 0 0 -21.81 -19.79 0c0,-26.39 0,-52.83 0,-79.22l3.69 -5.97 2.18 0zm33.87 24.18l0 21.97 0 2.18 19.9 0 7.79 -4.33 0 -24.16 -24.16 0 -3.53 4.33zm3.53 35.26l-5.25 3.25 0 16.54 -10.18 0 0 -71.61 49.77 0 0 51.81 -34.34 0 0 0zm-27.81 -55.07l4.32 1.6 0 -1.6 -4.32 0zm48.76 -19.79l14.94 1.6 0 13.83 3.69 0 0 -15.43 -18.63 0zm-40.75 21.39l-3.69 0 3.48 73.26 0.21 0 0 -73.26zm0 77.62l-3.69 1.6 3.69 -1.6zm4.36 0.98l11.74 2.64 0 -3.62 -11.74 0 0 0.98zm19.79 -16.94l31.53 0 0 -3.84 -31.53 0 0 3.84zm39.59 -61.67l11.74 0 3.69 26.49 0 -28.1 -15.43 0 0 1.6zm-4.36 61.67l-3.69 0 3.69 7.31 0 -7.31zm-39.59 19.58l-3.69 0 3.69 7.41 0 -7.41z"/>
  </g>
  <polygon class="fil2" points="47.64,44 47.64,59.43 63.07,59.43 63.07,44 "/>
  <polygon class="fil2" points="43.28,118.81 43.28,103.38 27.85,103.38 27.85,118.81 "/>
  <polygon class="fil2" points="82.86,99.02 82.86,83.59 47.64,83.59 47.64,99.02 "/>
  <polygon class="fil2" points="102.65,24.16 87.22,24.16 87.22,79.22 102.65,79.22 "/>
  <polygon class="fil2" points="27.85,4.36 27.85,19.79 82.86,19.79 82.86,4.36 "/>
  <polygon class="fil2" points="23.48,24.16 8.05,24.16 8.05,99.02 23.48,99.02 "/>
 </g>
</svg>
