<svg width="62" height="60" viewBox="0 0 62 60" fill="none" xmlns="http://www.w3.org/2000/svg">
<path d="M48.2877 60H13.3562C5.9589 60 0 54.2 0 47V13C0 5.8 5.9589 0 13.3562 0H48.2877C55.6849 0 61.6438 5.8 61.6438 13V47C61.6438 54.2 55.6849 60 48.2877 60Z" fill="black"/>
<path d="M41.0792 19.8801C32.1039 19.8801 30.8217 29.2551 30.8217 29.2551C30.8217 29.2551 29.5395 19.8801 20.5642 19.8801C17.8437 19.8801 15.2347 20.9335 13.311 22.8089C11.3873 24.6843 10.3066 27.228 10.3066 29.8801C10.3066 32.5323 11.3873 35.0757 13.311 36.951C15.2347 38.8264 17.8437 39.8801 20.5642 39.8801C29.5395 39.8801 30.8217 30.5051 30.8217 30.5051C30.8217 30.5051 32.1039 39.8801 41.0792 39.8801C43.7997 39.8801 46.4088 38.8264 48.3324 36.951C50.2561 35.0757 51.3368 32.5323 51.3368 29.8801C51.3368 27.228 50.2561 24.6843 48.3324 22.8089C46.4088 20.9335 43.7997 19.8801 41.0792 19.8801Z" fill="white"/>
</svg>
