<svg width="473" height="100" viewBox="0 0 473 100" fill="none" xmlns="http://www.w3.org/2000/svg">
<path d="M295 54V73H287V56C287 49 284 46 280 46C275.37 46 273 50 273 56V73H265V40H273V48C274 43 278.99 39 284 39C289 39 295 42 295 54Z" fill="white"/>
<path d="M383 54V73H375V56C375 49 372 46 368 46C363.37 46 361 50 361 56V73H353V40H361V48C362 43 366.99 39 372 39C377 39 383 42 383 54Z" fill="white"/>
<path d="M307 36C307 29.89 309.89 27 316 27H322V34.03L315 34V39.97L322 40V47H315V73H307V47H300V39.94L307 39.97V36Z" fill="white"/>
<path d="M419 47.03L412 47.06V40H419V31H427V40H434V47L427 47.03V65.98L434 65.95V73H428C421.89 73 419 70.08 419 63.97V47.03Z" fill="white"/>
<path d="M337.75 35C340.235 35 342.25 32.9853 342.25 30.5C342.25 28.0147 340.235 26 337.75 26C335.265 26 333.25 28.0147 333.25 30.5C333.25 32.9853 335.265 35 337.75 35Z" fill="white"/>
<path d="M348 66L342 66.03V40H327V47.03L334 47V66H327V73H348V66Z" fill="white"/>
<path d="M258 66L247 66.03V34H258V27H228V34H239V66L228 65.97V72.97L238 73H258V66Z" fill="white"/>
<path d="M398.75 35C401.235 35 403.25 32.9853 403.25 30.5C403.25 28.0147 401.235 26 398.75 26C396.265 26 394.25 28.0147 394.25 30.5C394.25 32.9853 396.265 35 398.75 35Z" fill="white"/>
<path d="M409 66L403 66.03V40H388V47.03L395 47V66H388V73H409V66Z" fill="white"/>
<path d="M464 40L455 63L447 40H438L451 72L449.46 76.63C449.19 77.45 448.42 78 447.56 78H444H439V85H447C453 85 453 85 456 78L473 40H464Z" fill="white"/>
<path d="M168 0H0V100H168V0Z" fill="white"/>
<path d="M118 17C89 17 84 48 84 48C84 48 80 17 51 17C32 17 17 32 17 50C17 68 31 83 50 83C79 83 84 52 84 52C84 52 88 83 117 83C136 83 151 68 151 50C151 32 137 17 118 17Z" fill="#010101"/>
</svg>
